<svg width="32" height="32" viewBox="0 0 32 32" fill="none" xmlns="http://www.w3.org/2000/svg">
<g clip-path="url(#clip0_343_368)">
<path fill-rule="evenodd" clip-rule="evenodd" d="M24.9026 30.3859C23.8692 31.4194 22.4675 32 21.006 32C19.5444 32 18.1428 31.4194 17.1093 30.3859L6.62263 19.8993C6.10897 19.389 5.70118 18.7822 5.42271 18.1138C5.14367 17.444 5 16.7256 5 16C5 15.2744 5.14367 14.556 5.42271 13.8862C5.70122 13.2177 6.10907 12.6109 6.62283 12.1005L6.62583 12.0975L17.1093 1.61405C18.1428 0.580586 19.5444 1.73441e-07 21.006 1.90869e-07C22.4675 2.08298e-07 23.8692 0.580588 24.9026 1.61405C25.9361 2.64751 26.5167 4.04919 26.5167 5.51073C26.5167 6.97226 25.9361 8.37394 24.9026 9.4074L18.3218 15.9882L24.9026 22.5926L24.9043 22.5942C25.9367 23.6275 26.5167 25.0285 26.5167 26.4893C26.5167 27.9508 25.9361 29.3525 24.9026 30.3859ZM8.03424 13.5175L18.5235 3.02827C19.1819 2.36988 20.0749 2 21.006 2C21.9371 2 22.83 2.36988 23.4884 3.02827C24.1468 3.68666 24.5167 4.57962 24.5167 5.51073C24.5167 6.44183 24.1468 7.3348 23.4884 7.99319L16.4214 15.0602C15.91 15.5716 15.9092 16.4005 16.4197 16.9128L23.4884 24.0068C24.1468 24.6652 24.5167 25.5582 24.5167 26.4893C24.5167 27.4204 24.1468 28.3133 23.4884 28.9717C22.83 29.6301 21.9371 30 21.006 30C20.0749 30 19.1819 29.6301 18.5235 28.9717L8.03424 18.4825C7.70652 18.1574 7.44641 17.7707 7.2689 17.3446C7.09139 16.9186 7 16.4616 7 16C7 15.5384 7.09139 15.0814 7.2689 14.6554C7.44641 14.2293 7.70652 13.8426 8.03424 13.5175Z" fill="black"/>
</g>
<defs>
<clipPath id="clip0_343_368">
<rect width="32" height="32" fill="white" transform="translate(32) rotate(90)"/>
</clipPath>
</defs>
</svg>
