<svg width="8" height="12" viewBox="0 0 8 12" fill="none" xmlns="http://www.w3.org/2000/svg">
<path fill-rule="evenodd" clip-rule="evenodd" d="M7.28221 7.0355L2.82512 11.5309C2.54536 11.8131 2.16592 11.9716 1.77028 11.9716C1.37463 11.9716 0.995194 11.8131 0.715431 11.5309C0.435669 11.2487 0.278499 10.866 0.278499 10.467C0.278499 10.0679 0.435669 9.68525 0.715431 9.40308L3.71836 6.37434C3.93566 6.15517 3.93597 5.79993 3.71906 5.58037L0.71543 2.5401C0.435669 2.25793 0.278499 1.87523 0.278499 1.47619C0.278499 1.07714 0.435669 0.694442 0.71543 0.412275C0.995193 0.130108 1.37463 -0.0284117 1.77028 -0.0284117C2.16592 -0.0284117 2.54536 0.130108 2.82512 0.412275L7.28221 4.90768C7.42147 5.04698 7.53199 5.21271 7.60742 5.39531C7.68285 5.57792 7.72168 5.77377 7.72168 5.97159C7.72168 6.1694 7.68285 6.36526 7.60742 6.54786C7.53199 6.73047 7.42147 6.8962 7.28221 7.0355Z" fill="#F8F8F8"/>
</svg>
