<svg width="32" height="32" viewBox="0 0 32 32" fill="none" xmlns="http://www.w3.org/2000/svg">
<g clip-path="url(#clip0_303_430)">
<path fill-rule="evenodd" clip-rule="evenodd" d="M15.3437 11.3184C14.4665 10.4412 13.9736 9.25146 13.9736 8.01089C13.9736 6.77032 14.4665 5.58056 15.3437 4.70334C16.2209 3.82613 17.4106 3.33331 18.6512 3.33331C19.8918 3.33331 21.0815 3.82613 21.9588 4.70334L29.9563 12.7009C30.3921 13.134 30.7381 13.649 30.9744 14.2162C31.2114 14.7849 31.3333 15.3948 31.3333 16.0109C31.3333 16.6269 31.2114 17.2369 30.9744 17.8056C30.7381 18.3728 30.3921 18.8877 29.9563 19.3209L29.9529 19.3242L21.9588 27.3184C21.0815 28.1957 19.8918 28.6885 18.6512 28.6885C17.4106 28.6885 16.2209 28.1957 15.3437 27.3184C14.4664 26.4412 13.9736 25.2515 13.9736 24.0109C13.9736 22.7703 14.4664 21.5806 15.3437 20.7033L15.3491 20.6979L15.3696 20.6776L5.31788 20.6776C4.0802 20.6776 2.89322 20.1859 2.01805 19.3107C1.14288 18.4356 0.65121 17.2486 0.65121 16.0109C0.65121 14.7732 1.14288 13.5862 2.01805 12.7111C2.89322 11.8359 4.0802 11.3442 5.31788 11.3442L15.3696 11.3442L15.3437 11.3184ZM16.7579 9.90422C16.2557 9.40208 15.9736 8.72103 15.9736 8.01089C15.9736 7.30075 16.2557 6.6197 16.7579 6.11756C17.26 5.61541 17.9411 5.33331 18.6512 5.33331C19.3614 5.33331 20.0424 5.61541 20.5445 6.11756L28.5445 14.1176C28.7945 14.3655 28.9929 14.6604 29.1283 14.9854C29.2636 15.3103 29.3333 15.6589 29.3333 16.0109C29.3333 16.3629 29.2636 16.7115 29.1283 17.0364C28.9929 17.3614 28.7945 17.6563 28.5445 17.9042L20.5445 25.9042C20.0424 26.4064 19.3613 26.6885 18.6512 26.6885C17.9411 26.6885 17.26 26.4064 16.7579 25.9042C16.2557 25.4021 15.9736 24.721 15.9736 24.0109C15.9736 23.3008 16.2557 22.6197 16.7579 22.1176L20.2245 18.6776L5.31788 18.6776C4.61063 18.6776 3.93236 18.3966 3.43226 17.8965C2.93216 17.3964 2.65121 16.7181 2.65121 16.0109C2.65121 15.3036 2.93216 14.6254 3.43226 14.1253C3.93236 13.6252 4.61063 13.3442 5.31788 13.3442L20.2245 13.3442L16.7579 9.90422Z" fill="#090031"/>
</g>
<defs>
<clipPath id="clip0_303_430">
<rect width="32" height="32" fill="white" transform="translate(32) rotate(90)"/>
</clipPath>
</defs>
</svg>
