<svg width="16" height="14" viewBox="0 0 16 14" fill="none" xmlns="http://www.w3.org/2000/svg">
<path d="M4.73907 12.1327L4.73885 12.1325L1.15297 8.55542C1.15265 8.55509 1.15233 8.55477 1.15201 8.55444C0.734312 8.13234 0.5 7.56248 0.5 6.96861C0.5 6.37659 0.732858 5.80842 1.14812 5.38672C1.57677 4.97983 2.14531 4.75289 2.73651 4.75289C3.32796 4.75289 3.89675 4.98003 4.32547 5.38726L5.89096 6.9615L6.24482 7.31734L6.59936 6.96218L11.6742 1.87859C12.1029 1.47116 12.6719 1.2439 13.2635 1.2439C13.8547 1.2439 14.4232 1.47084 14.8519 1.87773C15.2671 2.29943 15.5 2.86759 15.5 3.45961C15.5 4.05354 15.2656 4.62345 14.8479 5.04556C14.8476 5.04585 14.8473 5.04613 14.847 5.04642L7.75194 12.1327C7.35223 12.5319 6.81042 12.7562 6.2455 12.7562C5.68059 12.7562 5.13877 12.5319 4.73907 12.1327Z" fill="#02A791" stroke="#090031"/>
</svg>
