<svg width="24" height="24" viewBox="0 0 24 24" fill="none" xmlns="http://www.w3.org/2000/svg">
<path d="M6 5.25H18C20.07 5.25 21.75 6.93 21.75 9V9.25H2.25V9C2.25 6.93 3.93 5.25 6 5.25Z" fill="#17171B"/>
<path fill-rule="evenodd" clip-rule="evenodd" d="M2.25 16C2.25 18.07 3.93 19.75 6 19.75H18C20.07 19.75 21.75 18.07 21.75 16V10.75H2.25V16ZM8.48863 13.2007C8.22109 12.9331 7.77825 12.9331 7.51071 13.2007L7.34465 13.3667L7.17858 13.2007C6.91104 12.9331 6.4682 12.9331 6.20066 13.2007C5.93311 13.4682 5.93311 13.911 6.20066 14.1786L6.36672 14.3446L6.20066 14.5107C5.93311 14.7783 5.93311 15.2211 6.20066 15.4886C6.33904 15.627 6.51433 15.6916 6.68962 15.6916C6.86491 15.6916 7.0402 15.627 7.17858 15.4886L7.34465 15.3226L7.51071 15.4886C7.64909 15.627 7.82438 15.6916 7.99967 15.6916C8.17496 15.6916 8.35025 15.627 8.48863 15.4886C8.75618 15.2211 8.75618 14.7783 8.48863 14.5107L8.32257 14.3446L8.48863 14.1786C8.75618 13.911 8.75618 13.4682 8.48863 13.2007ZM13.1015 13.2007C12.8339 12.9331 12.3911 12.9331 12.1236 13.2007L11.9575 13.3667L11.7914 13.2007C11.5239 12.9331 11.0811 12.9331 10.8135 13.2007C10.546 13.4682 10.546 13.911 10.8135 14.1786L10.9796 14.3446L10.8135 14.5107C10.546 14.7783 10.546 15.2211 10.8135 15.4886C10.9519 15.627 11.1272 15.6916 11.3025 15.6916C11.4778 15.6916 11.6531 15.627 11.7914 15.4886L11.9575 15.3226L12.1236 15.4886C12.2619 15.627 12.4372 15.6916 12.6125 15.6916C12.7878 15.6916 12.9631 15.627 13.1015 15.4886C13.369 15.2211 13.369 14.7783 13.1015 14.5107L12.9354 14.3446L13.1015 14.1786C13.369 13.911 13.369 13.4682 13.1015 13.2007ZM16.7364 13.2007C17.004 12.9331 17.4468 12.9331 17.7143 13.2007C17.9819 13.4682 17.9819 13.911 17.7143 14.1786L17.5483 14.3446L17.7143 14.5107C17.9819 14.7783 17.9819 15.2211 17.7143 15.4886C17.576 15.627 17.4007 15.6916 17.2254 15.6916C17.0501 15.6916 16.8748 15.627 16.7364 15.4886L16.5704 15.3226L16.4043 15.4886C16.2659 15.627 16.0906 15.6916 15.9153 15.6916C15.74 15.6916 15.5648 15.627 15.4264 15.4886C15.1588 15.2211 15.1588 14.7783 15.4264 14.5107L15.5924 14.3446L15.4264 14.1786C15.1588 13.911 15.1588 13.4682 15.4264 13.2007C15.6939 12.9331 16.1367 12.9331 16.4043 13.2007L16.5704 13.3667L16.7364 13.2007Z" fill="#17171B"/>
</svg>
