<svg width="32" height="33" viewBox="0 0 32 33" fill="none" xmlns="http://www.w3.org/2000/svg">
<rect x="8" y="8.5" width="8" height="8" rx="1" fill="#F8F8F8"/>
<rect x="9.33325" y="19.1667" width="5.33333" height="5.33333" rx="1" fill="#F8F8F8"/>
<rect x="18.6667" y="11.1667" width="4" height="4" rx="1" fill="#F8F8F8"/>
<rect x="17.3333" y="17.8333" width="6.66667" height="6.66667" rx="1" fill="#F8F8F8"/>
<path d="M23.9999 3.5H21.3333C20.7866 3.5 20.3333 3.95333 20.3333 4.5C20.3333 5.04667 20.7866 5.5 21.3333 5.5H23.9999C25.6533 5.5 26.9999 6.84667 26.9999 8.5V11.1667C26.9999 11.7133 27.4533 12.1667 27.9999 12.1667C28.5466 12.1667 28.9999 11.7133 28.9999 11.1667V8.5C28.9999 5.74 26.7599 3.5 23.9999 3.5Z" fill="#F8F8F8"/>
<path d="M4 12.1667C4.54667 12.1667 5 11.7133 5 11.1667V8.5C5 6.84667 6.34667 5.5 8 5.5H10.6667C11.2133 5.5 11.6667 5.04667 11.6667 4.5C11.6667 3.95333 11.2133 3.5 10.6667 3.5H8C5.24 3.5 3 5.74 3 8.5V11.1667C3 11.7133 3.45333 12.1667 4 12.1667Z" fill="#F8F8F8"/>
<path d="M10.6667 27.5H8C6.34667 27.5 5 26.1533 5 24.5V21.8333C5 21.2867 4.54667 20.8333 4 20.8333C3.45333 20.8333 3 21.2867 3 21.8333V24.5C3 27.26 5.24 29.5 8 29.5H10.6667C11.2133 29.5 11.6667 29.0467 11.6667 28.5C11.6667 27.9533 11.2133 27.5 10.6667 27.5Z" fill="#F8F8F8"/>
<path d="M27.9999 20.8333C27.4533 20.8333 26.9999 21.2867 26.9999 21.8333V24.5C26.9999 26.1533 25.6533 27.5 23.9999 27.5H21.3333C20.7866 27.5 20.3333 27.9533 20.3333 28.5C20.3333 29.0467 20.7866 29.5 21.3333 29.5H23.9999C26.7599 29.5 28.9999 27.26 28.9999 24.5V21.8333C28.9999 21.2867 28.5466 20.8333 27.9999 20.8333Z" fill="#F8F8F8"/>
</svg>
