<svg width="64" height="64" viewBox="0 0 64 64" fill="none" xmlns="http://www.w3.org/2000/svg">
<path d="M5.16036 18.308C2.15475 24.1772 1.04097 31.0667 2.44579 38.0332" stroke="black" stroke-width="1.80625" stroke-miterlimit="10" stroke-linecap="round"/>
<path d="M45.3538 4.92995C39.5867 2.0991 32.8747 1.07812 26.0899 2.44613C18.3827 3.99996 11.9576 8.35867 7.66211 14.2448" stroke="black" stroke-width="1.80625" stroke-miterlimit="10" stroke-linecap="round"/>
<path d="M61.6755 26.0902C60.0815 18.1849 55.5367 11.6275 49.4189 7.33454" stroke="black" stroke-width="1.80625" stroke-miterlimit="10" stroke-linecap="round"/>
<path d="M62.2877 32.6695C62.3292 30.5034 62.1373 28.299 61.6914 26.0871" stroke="black" stroke-width="1.80625" stroke-miterlimit="10" stroke-linecap="round"/>
<path d="M2.46191 38.0302C2.54952 38.4639 2.6457 38.8935 2.75069 39.3191" stroke="black" stroke-width="1.80625" stroke-miterlimit="10" stroke-linecap="round"/>
<path d="M24.2607 61.2522C31.029 53.5488 34.2513 42.8872 32.068 32.06" stroke="black" stroke-width="1.80625" stroke-miterlimit="10" stroke-linecap="round"/>
<path d="M26.9076 49.7482C25.4276 53.5409 23.1951 57.0028 20.3555 59.9143" stroke="black" stroke-width="1.80625" stroke-miterlimit="10" stroke-linecap="round"/>
<path d="M28.4903 62.0664C35.0495 53.673 38.0413 42.574 35.7706 31.3138L35.7824 31.31C35.3678 29.2545 33.3658 27.9242 31.3103 28.3387C29.255 28.7533 27.925 30.7553 28.3393 32.811L28.3661 32.8065C29.2119 37.0017 29.1451 41.1694 28.302 45.1037" stroke="black" stroke-width="1.80625" stroke-miterlimit="10" stroke-linecap="round"/>
<path d="M24.9508 35.2545C26.1351 43.9924 22.8703 52.4324 16.7861 58.1245" stroke="black" stroke-width="1.80625" stroke-miterlimit="10" stroke-linecap="round"/>
<path d="M40.3005 38.7066C40.2931 36.022 40.0235 33.2991 39.4728 30.5674L39.4811 30.5642C38.655 26.4658 34.663 23.8131 30.5646 24.6397C27.5032 25.257 25.2483 27.6408 24.6484 30.5161" stroke="black" stroke-width="1.80625" stroke-miterlimit="10" stroke-linecap="round"/>
<path d="M33.0254 62.2587C36.8059 56.7341 39.2583 50.3061 40.0348 43.4968" stroke="black" stroke-width="1.80625" stroke-miterlimit="10" stroke-linecap="round"/>
<path d="M32.948 20.7489C31.9255 20.6692 30.8744 20.7279 29.8189 20.9408C23.6774 22.1792 19.7028 28.1611 20.9412 34.303L20.9624 34.2994C22.6373 42.6063 19.5416 50.7674 13.5615 55.9464" stroke="black" stroke-width="1.80625" stroke-miterlimit="10" stroke-linecap="round"/>
<path d="M37.8424 61.7114C43.2855 52.4323 45.4684 41.1953 43.1746 29.8207L43.1801 29.8184C42.4975 26.4344 40.375 23.7081 37.5791 22.1493" stroke="black" stroke-width="1.80625" stroke-miterlimit="10" stroke-linecap="round"/>
<path d="M16.3593 45.606C15.179 48.6453 13.2262 51.3458 10.6934 53.4205" stroke="black" stroke-width="1.80625" stroke-miterlimit="10" stroke-linecap="round"/>
<path d="M47.2075 46.7503C48.1472 41.0457 48.088 35.0781 46.8776 29.0746L46.8799 29.073C45.2294 20.8884 37.2577 15.5918 29.0736 17.242C20.889 18.8925 15.5922 26.8644 17.2427 35.0492L17.2603 35.0456C17.6522 36.9896 17.7308 38.9241 17.5305 40.7962" stroke="black" stroke-width="1.80625" stroke-miterlimit="10" stroke-linecap="round"/>
<path d="M42.8994 60.2631C44.2695 57.4508 45.3756 54.5012 46.1918 51.4529" stroke="black" stroke-width="1.80625" stroke-miterlimit="10" stroke-linecap="round"/>
<path d="M47.3389 20.9431C48.8929 23.076 50.0227 25.5707 50.5788 28.3273L50.58 28.3282C52.6334 38.5118 51.6102 48.6009 48.1542 57.6359" stroke="black" stroke-width="1.80625" stroke-miterlimit="10" stroke-linecap="round"/>
<path d="M24.1748 14.8907C25.4753 14.2947 26.8645 13.8379 28.3276 13.5431C34.1096 12.3774 39.8068 13.986 44.0393 17.4525" stroke="black" stroke-width="1.80625" stroke-miterlimit="10" stroke-linecap="round"/>
<path d="M8.19043 50.5863C12.4582 47.1578 14.7146 41.5284 13.5575 35.7922L13.5433 35.7954C12.1059 28.6681 14.8844 21.67 20.162 17.3843" stroke="black" stroke-width="1.80625" stroke-miterlimit="10" stroke-linecap="round"/>
<path d="M9.41137 32.9587C9.45992 34.1441 9.60193 35.3412 9.84397 36.5412L9.85549 36.5382C10.7026 40.7394 9.11154 44.8653 6.05762 47.4532" stroke="black" stroke-width="1.80625" stroke-miterlimit="10" stroke-linecap="round"/>
<path d="M54.7946 30.5157C54.6497 29.5389 54.4788 28.5609 54.2817 27.5819L54.2772 27.5816C51.803 15.3109 39.8515 7.37014 27.5812 9.84402C18.1515 11.7456 11.2782 19.2444 9.72461 28.184" stroke="black" stroke-width="1.80625" stroke-miterlimit="10" stroke-linecap="round"/>
<path d="M53.5059 53.3427C55.047 47.562 55.6878 41.4748 55.2965 35.2737" stroke="black" stroke-width="1.80625" stroke-miterlimit="10" stroke-linecap="round"/>
<path d="M35.6029 5.85473C32.7598 5.47067 29.8059 5.54631 26.8358 6.14531C12.5219 9.03125 3.25832 22.9732 6.14448 37.2869L6.15329 37.2846C6.6543 39.7682 5.87671 42.2119 4.27637 43.9384" stroke="black" stroke-width="1.80625" stroke-miterlimit="10" stroke-linecap="round"/>
<path d="M58.7263 46.2617C59.5117 39.9522 59.3097 33.4111 57.9837 26.8352L57.9762 26.8357C56.0135 17.1018 48.938 9.70383 40.1104 6.87366" stroke="black" stroke-width="1.80625" stroke-miterlimit="10" stroke-linecap="round"/>
</svg>
