<svg width="24" height="24" viewBox="0 0 24 24" fill="none" xmlns="http://www.w3.org/2000/svg">
<path fill-rule="evenodd" clip-rule="evenodd" d="M16.75 2H6.75C4.13 2 2 4.13 2 6.75V16.75C2 19.37 4.13 21.5 6.75 21.5H16.75C19.37 21.5 21.5 19.37 21.5 16.75V6.75C21.5 4.13 19.37 2 16.75 2ZM17.75 16.5H12.75C12.34 16.5 12 16.16 12 15.75C12 15.34 12.34 15 12.75 15H17.75C18.16 15 18.5 15.34 18.5 15.75C18.5 16.16 18.16 16.5 17.75 16.5ZM17.75 8.5H12.75C12.34 8.5 12 8.16 12 7.75C12 7.34 12.34 7 12.75 7H17.75C18.16 7 18.5 7.34 18.5 7.75C18.5 8.16 18.16 8.5 17.75 8.5ZM8.2175 6.2175L6.7475 7.6875L6.2775 7.2175C5.9875 6.9275 5.5075 6.9275 5.2175 7.2175C4.9275 7.5075 4.9275 7.9875 5.2175 8.2775L6.2175 9.2775C6.3675 9.4275 6.5575 9.4975 6.7475 9.4975C6.9375 9.4975 7.1275 9.4275 7.2775 9.2775L9.2775 7.2775C9.5675 6.9875 9.5675 6.5075 9.2775 6.2175C8.9875 5.9275 8.5075 5.9275 8.2175 6.2175ZM6.7475 15.6875L8.2175 14.2175C8.5075 13.9275 8.9875 13.9275 9.2775 14.2175C9.5675 14.5075 9.5675 14.9875 9.2775 15.2775L7.2775 17.2775C7.1275 17.4275 6.9375 17.4975 6.7475 17.4975C6.5575 17.4975 6.3675 17.4275 6.2175 17.2775L5.2175 16.2775C4.9275 15.9875 4.9275 15.5075 5.2175 15.2175C5.5075 14.9275 5.9875 14.9275 6.2775 15.2175L6.7475 15.6875Z" fill="#17171B"/>
</svg>
